<svg xmlns="http://www.w3.org/2000/svg" id="Layer_1" width="5333.8" height="2376.9" viewBox="0 0 5333.8 2376.9"><defs><style>      .cls-1 {        fill: #0b8450;      }      .cls-2 {        fill: #fefefe;      }      .cls-3 {        fill: #fcfdfc;      }      .cls-4 {        fill: #fdfefd;      }      .cls-5 {        fill: #fdfdfd;      }      .cls-6 {        fill: #fbfcfb;      }    </style></defs><title>cnu</title><path class="cls-1" d="M5133.4,6268.3H206.1c-110.8,0-200.6-89.8-200.6-200.6V4092.1c0-110.8,89.8-200.6,200.6-200.6H5133.4c110.8,0,200.6,89.8,200.6,200.6V6067.7C5348.1,6268.3,5244.2,6268.3,5133.4,6268.3Z" transform="translate(-1.4 -3891.5)"></path><g><path class="cls-1" d="M1.4,4375.3c3-10.8,10.4-18.5,18.1-26.2" transform="translate(-1.4 -3891.5)"></path><path class="cls-1" d="M19.5,4349.1c-7.7,7.7-15.1,15.4-18.1,26.2,2.9-2.5,6-4.9,8.7-7.6" transform="translate(-1.4 -3891.5)"></path><path class="cls-2" d="M2588.7,5388.6c-3.5-31-14.9-58.6-41.7-76.5-38.9-26.2-83.1-27.1-126.9-19.9-38.9,6.4-74.3,21.8-93.3,61.2-58.7-91.7-196.1-87.5-260.5,10.5,0-20.1-.7-35.5.2-50.9.8-12.2-3.4-15.8-15.5-15.6q-73.9.9-147.9,0c-12.6-.1-17.2,2.9-17.2,16.6q.8,180.2,0,360.5c-.1,14.6,4.3,18.1,18.3,17.8,50.8-.8,101.7-1,152.5.1,16.7.4,20.4-5.1,20.2-20.8-.8-67-.5-134-.2-201a214.6,214.6,0,0,1,3-34.4c2.8-17,14.2-24.8,31-24.9s27.9,8.2,30.9,25a170.2,170.2,0,0,1,2.7,29.7c.2,68.6.6,137.1-.2,205.7-.2,15.7,3.3,21.2,20,20.8,50-1.1,100.1-1.1,150.2,0,15.9.3,20.8-3.6,20.6-20.2-1-69.3-.5-138.6-.3-208a146.4,146.4,0,0,1,3.1-29.7c3.6-17,15.5-24,32.2-23.3s26.4,8.5,29.2,24.3a203.5,203.5,0,0,1,3.1,34.4c.3,67.8.4,135.6-.1,203.3-.1,13,1.7,19.4,17.3,19.1,52.4-1,104.8-.8,157.1-.1,13.7.2,17-4.6,16.5-17.3-.9-23.1.2-46.2-.3-69.3C2591,5533.2,2597,5460.8,2588.7,5388.6Z" transform="translate(-1.4 -3891.5)"></path><path class="cls-2" d="M1038.4,5163.6c-53.9.9-107.9,1-161.8-.1-16.2-.3-18.7,5.9-18.5,19.9q1,89,.1,177.9c-.5,48.5,3.2,97.1-2.4,145.5-4.4,38.3-22.4,55.8-56.8,57-37.8,1.3-57-15-65-53.9-2.8-13.7-3.3-27.5-3.3-41.4,0-95.5-.2-191,.3-286.6.1-13.4-2.2-18.8-17.3-18.5-56.2,1-112.5.7-168.7.2-12.8-.1-17.3,3.4-17.2,16.9.6,104-1.2,208,1,312,2.1,101.4,55.6,168.3,152.9,194.2,75.9,20.2,152.7,19.7,228.4-.4,88.5-23.5,139.4-86.6,143.8-178.4,2.6-53.8.5-107.8.5-161.7h1.7c0-54.7-.4-109.4.3-164.1C1056.4,5168.4,1053.1,5163.4,1038.4,5163.6Z" transform="translate(-1.4 -3891.5)"></path><path class="cls-3" d="M4781.7,4993.1q-498-.5-996,.2c-19.7,0-23.8-5.3-23.7-24.2.8-160.2.4-320.5.5-480.7,0-11.8,2.1-21.3-16.7-21.5s-16.1,10.9-16.1,22q0,236.9,0,473.7c0,30.2,0,30.2-30.9,30.2H565c-6.2,0-12.4.7-18.5-.1-16.1-2.3-19.2,5.4-18.9,19.8.4,20.9,15.5,13.3,24.9,13.3q789.2.5,1578.4.3,786.9,0,1573.8-.4c19.8,0,25.7,3.9,25.5,24.9-1.1,134-.6,268.1-.6,402.1,0,106.3.3,212.6-.4,318.9-.1,15.1,3.9,18.9,19,19.2,19,.3,14-11.9,14-21.4.1-238.8.5-477.6-.5-716.4-.1-22.2,5-27.4,27.3-27.4q496.9,1.2,993.7.7c14.3,0,25.1.8,23.8-19.7S4791.1,4993.1,4781.7,4993.1Z" transform="translate(-1.4 -3891.5)"></path><path class="cls-2" d="M1560.5,5407.4c-.7-40.8-14.1-77.1-52.2-99.4-70.9-41.6-167-19.2-215.3,55.8,0-20.4-.8-34,.2-47.6s-2.7-19.1-17.6-18.8c-48.5.9-97,1-145.5-.1-15.5-.3-17.3,5.9-17.2,19q.6,179-.1,358c-.1,14.2,3.8,18.3,18.1,18.1,50.8-.9,101.6-1,152.4.1,16.3.3,20.6-4.2,20.4-20.4-.9-69.3-.5-138.6-.3-207.9,0-9.9.5-20.1,2.8-29.7,3.9-16.5,15.8-23.9,32.5-23.2s27.2,9.9,29.5,26.6a258.6,258.6,0,0,1,2,34.5q.3,100.5,0,200.9c0,10.5-1,19.3,14.9,19,53.9-.9,107.8-.6,161.7-.1,10.9.1,14.8-3.4,14.7-14.5C1561.1,5587.5,1562,5497.4,1560.5,5407.4Z" transform="translate(-1.4 -3891.5)"></path><path class="cls-2" d="M4530.5,5136.2c-4.3-5.7-8.5-10.3-16.7-10.3-58.2.3-116.5.1-179.5.1L4475,5314.2H4334.5l-.2.2,141.8,189.9h-94c37.6,50.1,75.5,95.8,107.8,145.2,21.8,33.2,46,48.1,86.2,43.6,34.2-3.8,69.2-.8,103.9-.8h78.8l-141.6-189.3h184.3c0-3.2.3-4.1,0-4.5Z" transform="translate(-1.4 -3891.5)"></path><path class="cls-2" d="M4334.5,5314.2l.7-.9H4194.4l139.8-187.2c-59.9,0-114.4.6-168.9-.4-15-.3-23.5,5.1-32.2,16.7q-127.5,171.4-256,342c-4,5.3-7.8,10.6-13.4,18.3h188L3910,5692.3c71.2,0,136.7-1.4,202.1.7,25.5.8,40.2-7.9,54.5-27.9,38.2-53.6,78.6-105.7,120.9-162h-94.1l140.9-188.7-.2-.2Z" transform="translate(-1.4 -3891.5)"></path><path class="cls-2" d="M4334.2,5314.2l.2.2.2-.2Z" transform="translate(-1.4 -3891.5)"></path><path class="cls-2" d="M1824.2,5495.4c0-60-.2-120.1.2-180.1.1-12-1.9-18.2-16.1-18-53.1.7-106.2.5-159.3.1-11.6-.1-16.2,3-16.1,15.5q.6,181.3,0,362.5c0,13.4,4.4,16.9,17.3,16.7,50.8-.6,101.6-1,152.4.1,17,.4,22.5-3.7,22.2-21.5C1823.5,5612.4,1824.2,5553.9,1824.2,5495.4Z" transform="translate(-1.4 -3891.5)"></path><path class="cls-2" d="M2139.1,4828.5c13.7-.5,26.5,3.5,25.4-19.7-2.2-47.9-.6-96-.6-144.1,32.7,44.3,62.3,88.9,88.3,135.5,12.7,22.7,27.5,30.9,52.7,28.7,14.2-1.2,19.8-3.2,19.6-19.1-.9-75.5-1.4-151,.2-226.4.5-24.4-14.1-18-26.7-18.4s-25.2-4.3-24.3,18c1.9,49.8.6,99.7.6,149.6l-4.1,1.2c-28.9-47.1-59.2-93.4-86.1-141.6-12.2-21.9-26-30.1-50.6-28.1-14.9,1.3-19,4.5-18.9,19.5.8,74.7,1.3,149.4-.3,224.1C2113.9,4829.5,2124,4829.1,2139.1,4828.5Z" transform="translate(-1.4 -3891.5)"></path><path class="cls-2" d="M861.3,4832.7c47.1-1.1,82-25.3,98-67.4,2.1-5.5,7.5-14.3,2.5-16.8-13.5-6.8-28.2-12.3-43.1-15-10.8-2-8.1,11.1-11,17.1-12.2,25.3-29.8,37.3-55.9,36.3s-44.3-15.3-53.5-40.2c-5.9-16.1-7.9-32.8-7.6-49.9-.6-19.4,1.4-38.6,9.8-56.3,19-40.4,79.6-49.3,100.1-11.8,13.4,24.4,26.6,16.8,44.1,14.1s20.1-10.4,12.5-25.8c-19.3-38.9-52.1-55-93.4-56.4-49.5-1.6-89.5,16.9-111.7,62.6s-23.7,95.7-2.5,142.9S810.3,4833.9,861.3,4832.7Z" transform="translate(-1.4 -3891.5)"></path><path class="cls-4" d="M1809.7,5124.2c-53.8.5-107.7.4-161.5.1-10-.1-15.6,1.4-15.4,13.6.7,34.6.6,69.2,0,103.8-.2,11.1,3.8,14.8,14.7,14.6,26.9-.5,53.8-.2,80.8-.2s52.3-.5,78.5.2c12.2.3,18.1-2.3,17.8-16.4-.9-33.8-.7-67.7-.1-101.5C1824.6,5127.2,1820.6,5124.1,1809.7,5124.2Z" transform="translate(-1.4 -3891.5)"></path><path class="cls-2" d="M3426.5,4823.8c10.3-5.2,22.3-23.7,30.5,2.6.5,1.6,7,1.7,10.8,1.8,11.5.2,23,.1,38.5.1-12.8-24.1-11.9-46.5-11.9-68.8.1-23.8.4-47.7-.3-71.5-.5-15.7-4.7-30.1-18.5-40.3-26.6-19.6-92.4-19.7-118.7.3-10.1,7.7-16.8,17.7-21.4,29.4-1.4,3.6-3.3,6.8.3,10.3,7.2,6.7,41,4.9,47.3-2.9,14.2-17.6,32.1-15.2,50.3-9,9.5,3.2,11,12,11.2,20.8s-7.6,10.2-14.2,11.8c-20.9,5-42.1,8.8-62.7,15-26.5,8-39.5,25.2-40.4,49.8C3325.3,4821.8,3377.7,4848.4,3426.5,4823.8Zm-28.6-75c14.7-3.8,29.5-7.3,45.6-11.3,2.4,40.2-8.3,57.2-34.9,58.8-14.6.9-26.1-4-29.9-19.1S3383.2,4752.7,3397.9,4748.9Z" transform="translate(-1.4 -3891.5)"></path><path class="cls-2" d="M2978.4,4832.7c56.2-.4,97.2-43.1,97-100.8s-40.5-98.3-98.6-98.2-97.8,40.2-97.5,99.1C2879.7,4793.9,2918.6,4833.2,2978.4,4832.7Zm-47.5-108.3c2.9-33.4,24.5-53.1,53.8-49,24.3,3.4,38.7,24.5,38.8,59,.5,9.4-.8,20.9-6.2,31.3-8.5,16.2-21.6,25.7-40.4,25.6C2946.9,4791.1,2927.6,4762.9,2930.9,4724.4Z" transform="translate(-1.4 -3891.5)"></path><path class="cls-2" d="M2469,4708.6c-21.6,5.4-43.6,9.3-64.7,16.2-27.3,8.9-39.5,28.9-37.7,56.3,1.7,24.6,18,42.8,44.2,49.4,29.3,7.4,54-3.3,77.2-20.9,10.6,33.1,35.9,12.6,55.2,20.1-3.8-18-9.6-32.5-9.5-48s0-30.8-.1-46.1c-.1-17.7-.1-35.4-.8-53-.6-15.4-7.1-27.9-20.5-36.6-25.4-16.5-88.4-16.9-113.1,0a60.3,60.3,0,0,0-23.6,30.5c-1.2,3.4-2.6,8.2-1.1,10.7,4.1,7.1,42,6,47.5-1.3,13.7-18.2,31.6-15.9,50-10.4,9.9,3,11.5,11.7,12.3,20.2C2485.4,4706.8,2476.1,4706.8,2469,4708.6Zm15.8,43c-.3,29.4-19,48-44,44.7-12.9-1.7-21.2-8.8-23.3-21.7s4.5-20.8,16-24.5,25.3-6,37.8-9.9S2486.5,4741.6,2484.8,4751.6Z" transform="translate(-1.4 -3891.5)"></path><path class="cls-2" d="M1795.3,4708.5c-22.8,6.8-46.9,8.1-69,17.6-24,10.3-35.9,29-34.4,54.1,1.5,23.2,16.1,41.4,39.2,48.7,30.8,9.8,57.2,0,82.1-19.3,10,32.7,35.2,13.6,57.2,20.3-11.8-29.7-11.8-55.7-11.5-81.9.3-21.5-.2-43-.6-64.6-.2-12.8-4.5-24-14.2-32.8-27.2-24.6-101.2-23.5-127.5,1.9a60.4,60.4,0,0,0-16,24.9c-1.1,3.4-3.4,6.8.7,10.3,8,6.9,39.8,4.7,47.1-3.6,11.3-12.9,35.8-16.7,50.8-8.4,8.7,4.8,10.8,13,10.9,21.4S1801.8,4706.6,1795.3,4708.5Zm15.3,42.8c-1.3,31.1-21.6,49.6-46.2,44.8-11.7-2.3-19.4-9.4-21.5-21.2s4.4-20.9,15.8-24.7,23.8-6,35.6-9.5S1814.5,4738.8,1810.7,4751.3Z" transform="translate(-1.4 -3891.5)"></path><path class="cls-2" d="M1079.5,4832.3c34.5,2.2,64.1-7.3,83.1-38.6,2.9-4.9,8.8-9.9,5.2-16.5s-46-7.5-50.8.5c-8.2,13.4-19.7,19.2-35,16.5s-26.2-12.7-31.4-27.5c-4.2-11.9-4-21.1,13.4-19.7,15.3,1.1,30.8.2,46.2.2h20.8c48.9,0,50.4-2,37.8-49.6-10.3-39-40-62.6-80.3-63.8-42.5-1.3-73.3,19.4-86.3,58.8-9.7,29.5-9.4,59.4,1.9,88.2C1017.3,4814.6,1044.4,4830.1,1079.5,4832.3Zm-21.2-147.4c10.4-12,23.6-16.6,39.1-11.2s22.7,17.2,25.5,32.5c1.4,7.7-1.2,11.3-9.6,10.9s-18.3-.1-27.5-.1c-4.6,0-9.3.7-13.7-.2-7.6-1.5-18.5,5.3-22.3-4.6S1051.6,4692.6,1058.3,4684.9Z" transform="translate(-1.4 -3891.5)"></path><path class="cls-2" d="M1240.4,4828.3c13.7.4,27.2,3.9,25.7-19.6-2.1-32.9-.8-66.1.9-99.1,1.2-23.3,20-39.5,41.1-37.7,22.7,1.9,28.6,17.5,28.8,37.2.3,34.6,1,69.2.6,103.8-.1,11.9,3.3,17.1,15.6,15.6a76.5,76.5,0,0,1,18.4,0c12.9,1.6,17.2-3.1,16.9-16.4-.9-38.4.2-76.9-.9-115.3-1.2-44.8-24.7-65.3-69.5-62.9-17.7.9-32.4,8.2-45.5,19.7-4.1,3.7-9.9,14.6-11-2.3-1.6-26.3-22-9.4-33.2-12.9-13.9-4.3-13.5,6.8-13.4,16.5.3,25.4.1,50.8.1,76.1s1.8,52.5-.5,78.4C1212.3,4833.4,1227.5,4828,1240.4,4828.3Z" transform="translate(-1.4 -3891.5)"></path><path class="cls-2" d="M3115.2,4795c0,34.3,0,33.7,34,33.6,12.9,0,17.1-3.5,16.9-16.7-.7-33.1-.7-66.2.8-99.3,1.1-25.3,19-42.1,41-40.8,24.5,1.4,29.3,18.9,29.8,38.9.6,29.2.4,58.5,1.2,87.7.3,9.6-5.1,24.3,3.6,27.6,12.1,4.6,27.1,2.2,40.9,1.8,6.2-.2,5.5-6.4,5.5-10.8-.5-44.6.1-89.3-2.2-133.9-1.4-28.2-20.9-45.3-49.6-48.9s-52.7,5.2-74,26.6c4.7-31.9-17.7-20.7-31.3-23.1-19.2-3.4-16.6,9.4-16.5,21C3115.2,4704.2,3115.2,4749.6,3115.2,4795Z" transform="translate(-1.4 -3891.5)"></path><path class="cls-2" d="M2650.3,4831.9c42,6.2,79.4-11.2,94.6-45.4,3.2-7.2,14.4-20.7-1.1-23-13.8-2.1-33.3-22.3-44.2,5.2-6.2,15.5-17.3,22.9-33.7,22.7s-28.8-7.9-34.4-22.7c-9.1-23.6-9.3-48.1-1.1-72.2,5-14.7,16.9-21.7,31.6-23.2s27.7,1.8,33.1,15.5,12.7,14.2,24.4,10.8c9.5-2.8,19.5-3.9,30.6-6-18.2-48.8-50.1-66.5-102.9-59-40.3,5.7-69,37.1-72.5,80.4a207.6,207.6,0,0,0,.5,41.4C2580,4797.5,2608.7,4825.7,2650.3,4831.9Z" transform="translate(-1.4 -3891.5)"></path><path class="cls-2" d="M1436.3,4678.3c8.4-.2,5.5,9.5,5.6,15.1.3,26.9,0,53.9.3,80.9.5,49.8,30.9,70.7,77.8,54.5,19-6.5,7.5-20.3,8.1-30.9s-6.6-10.2-15.3-8c-13.7,3.4-20-3.5-19.9-17.3.2-26.2.6-52.4-.4-78.5-.5-13.3,4.1-18.7,16.9-16.4,17.8,3.2,17.6-7.8,17.4-20.4s.4-22.3-16.2-19.1-18.8-6.4-18-19.9.2-29.1.2-47.6c-16.5,9.4-29,16.8-41.7,23.7-5.8,3.2-9.1,6.8-9.3,14.2-.3,13.6,7.5,33.2-19.4,30.5-.9-.1-3.8,5.1-3.2,7.2C1422.2,4658,1407.7,4679,1436.3,4678.3Z" transform="translate(-1.4 -3891.5)"></path><path class="cls-5" d="M3544.8,4695.4c0,39.3.5,78.5-.3,117.8-.2,12.1,3.3,16.8,15.5,15.4,7.6-.9,15.4-.5,23.1-.1s12.4-2.4,12.4-11.7c-.2-80,.7-160.1-.7-240.1-.4-24-21.5-7.7-32.5-11.2-13.3-4.3-18.3,2.1-17.9,16.8C3545.5,4619.9,3544.8,4657.7,3544.8,4695.4Z" transform="translate(-1.4 -3891.5)"></path><path class="cls-4" d="M1909.4,4795.9c0,32.9,0,31.9,32.6,32.9,16.1.5,18.7-5.4,18.4-19.6-.9-36.8-.3-73.7-.3-110.5,0-38.4-1.5-76.9.6-115.1,1.3-23.9-13.3-18.4-26-18.5s-26.4-4.9-25.8,18.9C1910.5,4654.6,1909.4,4725.2,1909.4,4795.9Z" transform="translate(-1.4 -3891.5)"></path><path class="cls-3" d="M1559.1,4809.8c-.8,21.7,11.5,19.2,24.3,18.4s28.4,7.1,27-17.6c-1.9-32.1-1.4-64.5,2.8-96.5,2.5-18.5,9.6-39.8,31.3-33.7,27.6,7.7,28.3-8.9,34.8-25.4,4.5-11.3.5-15-9.1-18.1-24.9-8.1-44.9-1.4-61.1,24-1.4-34.7-24.3-21.1-38.6-22.4-17.4-1.5-10.5,13.7-10.6,21.8C1559.3,4710.1,1560.8,4760,1559.1,4809.8Z" transform="translate(-1.4 -3891.5)"></path><path class="cls-5" d="M2804,4828.4a79.4,79.4,0,0,1,18.4,0c13.2,1.8,17-3.7,16.5-16.6-.9-26.1-.3-52.2-.3-78.4s-.6-53.8.3-80.7c.4-12.4-3.8-16.5-15.7-15.1a104.1,104.1,0,0,1-20.7,0c-10.9-1-14.7,3.1-14.6,14.3.5,53.8.6,107.6-.1,161.3C2787.7,4826.2,2792.6,4829.6,2804,4828.4Z" transform="translate(-1.4 -3891.5)"></path><path class="cls-6" d="M2812.6,4610.9c17.3,3.1,28.8,1.8,26.8-21.9-1.4-16.7-1.4-27.5-22.7-24.4-14.9,2.1-31.6-5.1-29.6,22.7C2788.5,4607.3,2792.3,4615.8,2812.6,4610.9Z" transform="translate(-1.4 -3891.5)"></path><path class="cls-2" d="M3577.2,5124.2c-51.6.6-103.2.8-154.8-.1-14.6-.3-18,4.2-17.8,18.1.7,61.6.4,123.2.1,184.9,0,5.2,3.9,12.1-3.5,16.1-64.9-87.8-232-72-270.9,54.9-20.7,67.7-19.7,135.5,5.6,201.6,24.1,62.9,72,95.8,139.2,100.5,61.3,4.3,110.9-14,143.2-72.4,0,15.2.7,30.3-.2,45.5-.8,13.2,2.1,19.4,17.5,19.1,47.7-1,95.5-.8,143.3-.1,13.1.2,17-3.8,16.9-16.9q-.6-266.9.1-533.8C3596,5126.1,3590.4,5124,3577.2,5124.2Zm-176,423.5c-5.8,16.4-18.7,25.3-37.1,25.6s-32.4-8.2-39.9-25.3c-8.5-19.3-9.7-40-9.7-60.8.1-18.5,1.5-36.7,8.5-54.1s20.1-26.5,39-26.5,33.4,8.4,39.3,26.2C3413.8,5470.8,3414.5,5509.6,3401.2,5547.6Z" transform="translate(-1.4 -3891.5)"></path><path class="cls-2" d="M2920.7,5292.1c-52.9-7.5-106-4.4-157.8,10.9-75.5,22.3-121.4,71.2-130.6,150-12,102.6,21.1,200.6,139.4,233.9,88.9,25,178.5,15.3,267.2-5.3,8.1-1.9,13.1-5.1,12.8-15.3-.8-29.1-.3-58.2-.3-89.2-7.7,2.9-13.3,5.2-19,7-53,16.9-106.9,21.8-161.7,11.5-20.2-3.8-37.8-12.9-47.5-32.8-7.1-14.6-8.1-23.4,13.6-23,59.3,1.1,118.6.7,177.9.2,21.4-.2,51,9.5,62-3.8,12.9-15.4,3.2-44.2,1.2-67C3069,5368.8,3013.8,5305.4,2920.7,5292.1Zm-18.3,165.2c-12.2-.9-24.5-.2-36.8-.2h-20.7c-33.1,0-33.1,0-25.5-33.5,6.5-28.7,25.5-45.5,50.3-44.5s37.6,15.9,43.1,45.6c1.1,6,1.7,12.1,2.9,18.1C2917.9,5454,2913.8,5458.1,2902.4,5457.3Z" transform="translate(-1.4 -3891.5)"></path></g><polyline class="cls-1" points="5131.9 2376.9 5197.1 2375.2 5332.6 2376.9 5333.8 2201.4"></polyline></svg>